<svg width="546" height="534" viewBox="0 0 546 534" fill="none" xmlns="http://www.w3.org/2000/svg">
<path d="M259.862 20.821C266.624 13.0599 278.714 13.0593 285.477 20.82L285.799 21.2018L355.771 106.287L465.921 107.944C476.626 108.105 484.519 118.003 482.294 128.475L459.398 236.231L526.781 323.383C533.329 331.853 530.512 344.195 520.937 348.985L422.413 398.268L396.289 505.288C393.75 515.689 382.344 521.182 372.629 516.682L272.669 470.382L172.709 516.682C162.994 521.182 151.588 515.689 149.049 505.288L122.924 398.268L24.4017 348.985C14.8264 344.195 12.0092 331.853 18.5579 323.383L85.9398 236.231L63.0443 128.475C60.8191 118.003 68.7121 108.105 79.4173 107.944L189.567 106.287L259.539 21.2018L259.862 20.821Z" fill="#374E44" stroke="#887C63" stroke-width="30"/>
</svg>
